<?xml version="1.0" encoding="UTF-8"?>
<svg xmlns="http://www.w3.org/2000/svg" viewBox="0 0 1000 1000">
  <defs>
    <style>
      .uuid-c632396c-7d06-41e9-883b-26b275db14bf, .uuid-abc8ee72-ce4b-40e0-938d-3a7b799a193d {
        stroke-width: 0px;
      }

      .uuid-abc8ee72-ce4b-40e0-938d-3a7b799a193d {
        fill: #fff;
      }
    </style>
  </defs>
  <g id="uuid-8d5dce07-f6fd-491e-8af2-c5ba352fa9bc" data-name="Layer 1">
    <rect class="uuid-abc8ee72-ce4b-40e0-938d-3a7b799a193d" width="1000" height="1000"/>
  </g>
  <g id="uuid-36f3f35b-3cdc-4faa-9ab1-0d066ce82128" data-name="Layer 2">
    <g>
      <g>
        <g>
          <path class="uuid-c632396c-7d06-41e9-883b-26b275db14bf" d="m303.34,693.03v-15.49h-15.66v15.49h-8.49v-38.59h8.49v15.27h15.66v-15.27h8.49v38.59h-8.49Z"/>
          <path class="uuid-c632396c-7d06-41e9-883b-26b275db14bf" d="m339.84,693.7c-11.91,0-20.45-8.88-20.45-19.85v-.11c0-10.97,8.66-19.96,20.56-19.96s20.45,8.88,20.45,19.85v.11c0,10.97-8.66,19.96-20.56,19.96Zm11.69-19.96c0-6.62-4.85-12.13-11.69-12.13s-11.58,5.4-11.58,12.02v.11c0,6.62,4.85,12.13,11.69,12.13s11.58-5.4,11.58-12.02v-.11Z"/>
          <path class="uuid-c632396c-7d06-41e9-883b-26b275db14bf" d="m398.11,693.03v-25.19l-10.86,16.48h-.22l-10.75-16.32v25.03h-8.33v-38.59h9.15l10.14,16.32,10.14-16.32h9.15v38.59h-8.43Z"/>
          <path class="uuid-c632396c-7d06-41e9-883b-26b275db14bf" d="m415.81,693.03v-38.59h29.11v7.55h-20.67v7.83h18.19v7.55h-18.19v8.1h20.95v7.55h-29.39Z"/>
          <path class="uuid-c632396c-7d06-41e9-883b-26b275db14bf" d="m499.45,693.03v-25.19l-10.86,16.48h-.22l-10.75-16.32v25.03h-8.32v-38.59h9.15l10.14,16.32,10.14-16.32h9.15v38.59h-8.43Z"/>
          <path class="uuid-c632396c-7d06-41e9-883b-26b275db14bf" d="m535.89,693.7c-11.91,0-20.45-8.88-20.45-19.85v-.11c0-10.97,8.66-19.96,20.56-19.96s20.45,8.88,20.45,19.85v.11c0,10.97-8.65,19.96-20.56,19.96Zm11.69-19.96c0-6.62-4.85-12.13-11.69-12.13s-11.58,5.4-11.58,12.02v.11c0,6.62,4.85,12.13,11.69,12.13s11.58-5.4,11.58-12.02v-.11Z"/>
          <path class="uuid-c632396c-7d06-41e9-883b-26b275db14bf" d="m581.32,693.31h-7.5l-15.6-38.87h9.37l10.09,27.18,10.09-27.18h9.15l-15.6,38.87Z"/>
          <path class="uuid-c632396c-7d06-41e9-883b-26b275db14bf" d="m603.26,693.03v-38.59h8.49v38.59h-8.49Z"/>
          <path class="uuid-c632396c-7d06-41e9-883b-26b275db14bf" d="m621.4,693.03v-38.59h29.11v7.55h-20.67v7.83h18.19v7.55h-18.19v8.1h20.95v7.55h-29.39Z"/>
        </g>
        <g>
          <path class="uuid-c632396c-7d06-41e9-883b-26b275db14bf" d="m351.27,722.51h-2.05v-9.7h-3.67v-1.89h9.4v1.89h-3.67v9.7Z"/>
          <path class="uuid-c632396c-7d06-41e9-883b-26b275db14bf" d="m370.5,722.51h-2.15l-1.17-2.8h-5.48l-1.19,2.8h-2.09l5.1-11.67h1.89l5.1,11.67Zm-6.07-9.23l-1.99,4.63h3.99l-2-4.63Z"/>
          <path class="uuid-c632396c-7d06-41e9-883b-26b275db14bf" d="m384.95,721.6c-.35.22-.72.41-1.13.58-.4.17-.84.3-1.3.39-.46.09-.95.14-1.46.14-.9,0-1.73-.15-2.47-.46-.74-.3-1.37-.72-1.89-1.26-.52-.53-.93-1.17-1.22-1.89-.29-.73-.43-1.52-.43-2.37s.15-1.59.44-2.32c.29-.73.7-1.37,1.23-1.91.53-.55,1.16-.98,1.89-1.3.73-.32,1.54-.48,2.41-.48.51,0,.97.04,1.38.11.41.07.8.17,1.15.31.35.13.69.3,1,.49.31.19.62.42.92.67l-1.29,1.54c-.22-.19-.45-.36-.68-.51-.23-.15-.47-.28-.73-.39-.25-.1-.53-.19-.84-.25-.3-.06-.64-.09-1-.09-.53,0-1.02.11-1.48.32-.46.22-.86.51-1.19.89-.34.38-.6.81-.79,1.31-.19.5-.29,1.03-.29,1.59,0,.6.09,1.15.28,1.66.19.51.46.95.8,1.32.35.37.76.66,1.24.87.48.21,1.02.32,1.61.32.55,0,1.07-.08,1.55-.24.48-.16.9-.37,1.25-.64v-2.18h-2.96v-1.77h4.93v4.87c-.29.24-.6.47-.95.69Z"/>
          <path class="uuid-c632396c-7d06-41e9-883b-26b275db14bf" d="m392.36,710.92h2.02v9.75h6.09v1.84h-8.11v-11.59Z"/>
          <path class="uuid-c632396c-7d06-41e9-883b-26b275db14bf" d="m408.55,710.92v11.59h-2.02v-11.59h2.02Z"/>
          <path class="uuid-c632396c-7d06-41e9-883b-26b275db14bf" d="m423.54,710.92h2.02v11.59h-1.7l-6.38-8.24v8.24h-2.02v-11.59h1.88l6.19,8.01v-8.01Z"/>
          <path class="uuid-c632396c-7d06-41e9-883b-26b275db14bf" d="m440.92,712.76h-6.55v2.98h5.81v1.84h-5.81v3.09h6.64v1.84h-8.66v-11.59h8.57v1.84Z"/>
          <path class="uuid-c632396c-7d06-41e9-883b-26b275db14bf" d="m465.38,721.6c-.35.22-.72.41-1.12.58-.4.17-.84.3-1.3.39-.46.09-.95.14-1.46.14-.9,0-1.73-.15-2.47-.46-.74-.3-1.37-.72-1.89-1.26-.52-.53-.93-1.17-1.22-1.89-.29-.73-.43-1.52-.43-2.37s.15-1.59.44-2.32c.29-.73.7-1.37,1.23-1.91.53-.55,1.16-.98,1.89-1.3.73-.32,1.54-.48,2.41-.48.51,0,.97.04,1.38.11.41.07.8.17,1.15.31.35.13.69.3,1,.49.31.19.62.42.92.67l-1.29,1.54c-.22-.19-.45-.36-.68-.51-.23-.15-.47-.28-.73-.39-.25-.1-.53-.19-.84-.25-.3-.06-.64-.09-1-.09-.53,0-1.02.11-1.48.32-.46.22-.86.51-1.19.89-.34.38-.6.81-.79,1.31-.19.5-.29,1.03-.29,1.59,0,.6.09,1.15.28,1.66.19.51.46.95.8,1.32.35.37.76.66,1.24.87.48.21,1.02.32,1.61.32.55,0,1.07-.08,1.55-.24.48-.16.9-.37,1.25-.64v-2.18h-2.96v-1.77h4.93v4.87c-.29.24-.6.47-.95.69Z"/>
          <path class="uuid-c632396c-7d06-41e9-883b-26b275db14bf" d="m483.95,719.02c-.3.73-.72,1.37-1.26,1.91-.54.55-1.18.98-1.92,1.3-.74.32-1.56.48-2.45.48s-1.71-.16-2.45-.47c-.74-.31-1.37-.74-1.9-1.28-.53-.54-.94-1.17-1.24-1.9-.3-.73-.45-1.5-.45-2.32s.15-1.59.45-2.32c.3-.73.72-1.37,1.26-1.91.54-.55,1.18-.98,1.92-1.3.74-.32,1.56-.48,2.45-.48s1.71.16,2.45.47c.74.31,1.37.74,1.9,1.28.53.54.94,1.17,1.24,1.9.3.73.45,1.5.45,2.32s-.15,1.59-.45,2.32Zm-1.98-3.88c-.19-.5-.46-.94-.81-1.32s-.76-.67-1.25-.89c-.49-.22-1.01-.33-1.59-.33s-1.1.11-1.58.32c-.48.22-.89.51-1.23.88-.34.37-.61.81-.8,1.31-.19.5-.29,1.03-.29,1.6s.1,1.1.29,1.6c.19.5.46.94.81,1.32.35.38.76.67,1.25.89.49.22,1.02.33,1.59.33s1.1-.11,1.58-.32c.48-.22.89-.51,1.23-.88.34-.37.61-.8.8-1.31.19-.5.29-1.03.29-1.6s-.1-1.09-.29-1.6Z"/>
          <path class="uuid-c632396c-7d06-41e9-883b-26b275db14bf" d="m499.24,712.76h-6.55v2.98h5.81v1.84h-5.81v3.09h6.64v1.84h-8.66v-11.59h8.57v1.84Z"/>
          <path class="uuid-c632396c-7d06-41e9-883b-26b275db14bf" d="m507.38,714.55c.08.17.22.32.42.46.2.14.49.28.85.4.36.12.82.25,1.37.38.61.15,1.15.33,1.62.51.47.19.86.42,1.17.69.31.27.54.59.71.94.16.36.24.78.24,1.27,0,.55-.1,1.04-.3,1.47-.2.43-.48.8-.85,1.09-.36.3-.79.52-1.3.68-.51.15-1.06.23-1.67.23-.89,0-1.75-.15-2.57-.46-.82-.3-1.57-.77-2.27-1.4l1.22-1.46c.56.49,1.13.86,1.7,1.12.57.26,1.22.39,1.95.39.63,0,1.13-.13,1.5-.4.37-.26.55-.62.55-1.08,0-.21-.04-.4-.11-.56-.07-.17-.2-.32-.4-.46-.19-.14-.46-.27-.8-.39-.34-.12-.78-.25-1.32-.38-.62-.14-1.17-.3-1.65-.48-.48-.18-.89-.4-1.21-.66-.33-.27-.58-.58-.75-.96-.17-.38-.26-.83-.26-1.37,0-.51.1-.97.3-1.38.2-.41.47-.77.81-1.07.35-.3.76-.53,1.24-.69.48-.16,1.01-.24,1.59-.24.85,0,1.61.12,2.29.37.68.25,1.32.61,1.91,1.08l-1.09,1.54c-.53-.39-1.05-.68-1.57-.89-.52-.2-1.04-.31-1.57-.31-.6,0-1.06.14-1.39.41-.33.27-.5.6-.5.98,0,.23.04.43.12.6Z"/>
          <path class="uuid-c632396c-7d06-41e9-883b-26b275db14bf" d="m530.75,717.63v4.88h-2.02v-11.59h2.02v4.82h5.56v-4.82h2.02v11.59h-2.02v-4.88h-5.56Z"/>
          <path class="uuid-c632396c-7d06-41e9-883b-26b275db14bf" d="m553.69,712.76h-6.55v2.98h5.81v1.84h-5.81v3.09h6.64v1.84h-8.66v-11.59h8.57v1.84Z"/>
          <path class="uuid-c632396c-7d06-41e9-883b-26b275db14bf" d="m567.44,722.51l-2.85-4.04h-2.56v4.04h-2.02v-11.59h5.16c.66,0,1.26.09,1.8.26.53.17.99.41,1.36.73.37.32.65.7.85,1.16.2.46.3.97.3,1.53,0,.49-.07.92-.21,1.3-.14.38-.33.72-.57,1.01-.24.29-.53.54-.87.75-.34.2-.71.36-1.12.47l3.13,4.39h-2.4Zm-.66-9.26c-.42-.33-1.01-.49-1.78-.49h-2.97v3.91h2.99c.73,0,1.31-.18,1.74-.53.43-.35.65-.83.65-1.43,0-.64-.21-1.13-.63-1.45Z"/>
          <path class="uuid-c632396c-7d06-41e9-883b-26b275db14bf" d="m584.35,712.76h-6.55v2.98h5.81v1.84h-5.81v3.09h6.64v1.84h-8.66v-11.59h8.57v1.84Z"/>
        </g>
      </g>
      <g>
        <path class="uuid-c632396c-7d06-41e9-883b-26b275db14bf" d="m577.57,365.24l-90.53-78.7c-14.19-12.34-35.31-12.34-49.49,0l-90.48,78.7c-8.27,7.16-12.99,17.56-12.99,28.47v168.02c0,20.84,16.87,37.75,37.71,37.75h181.01c20.84,0,37.71-16.91,37.71-37.75v-168.02c0-10.91-4.71-21.3-12.94-28.47Zm-115.25,192.38c-45.66,0-82.67-37.02-82.67-82.63s37.02-82.63,82.67-82.63,82.63,36.97,82.63,82.63-37.02,82.63-82.63,82.63Z"/>
        <path class="uuid-c632396c-7d06-41e9-883b-26b275db14bf" d="m692.59,405.06l-79.3,45.78c-12.54,7.24-12.54,25.34,0,32.58l79.3,45.78c12.54,7.24,28.22-1.81,28.22-16.29v-91.57c0-14.48-15.68-23.53-28.22-16.29Z"/>
        <path class="uuid-c632396c-7d06-41e9-883b-26b275db14bf" d="m462.32,453.83c11.69,0,21.16-9.47,21.16-21.16s-9.47-21.21-21.16-21.21-21.21,9.52-21.21,21.21,9.47,21.16,21.21,21.16Z"/>
        <path class="uuid-c632396c-7d06-41e9-883b-26b275db14bf" d="m462.32,496.12c-11.74,0-21.21,9.52-21.21,21.21s9.47,21.21,21.21,21.21,21.16-9.52,21.16-21.21-9.47-21.21-21.16-21.21Z"/>
        <path class="uuid-c632396c-7d06-41e9-883b-26b275db14bf" d="m504.65,453.79c-11.69,0-21.21,9.52-21.21,21.21s9.52,21.16,21.21,21.16,21.16-9.47,21.16-21.16-9.47-21.21-21.16-21.21Z"/>
        <path class="uuid-c632396c-7d06-41e9-883b-26b275db14bf" d="m419.99,453.79c-11.74,0-21.21,9.52-21.21,21.21s9.47,21.16,21.21,21.16,21.16-9.47,21.16-21.16-9.47-21.21-21.16-21.21Z"/>
        <path class="uuid-c632396c-7d06-41e9-883b-26b275db14bf" d="m452.94,475c0,5.18,4.21,9.33,9.38,9.33s9.33-4.16,9.33-9.33-4.21-9.33-9.33-9.33-9.38,4.16-9.38,9.33Z"/>
      </g>
    </g>
  </g>
</svg>